<svg width="75" height="80" viewBox="0 0 75 80" fill="none" xmlns="http://www.w3.org/2000/svg">
<circle cx="37.5221" cy="42.9499" r="37.0501" fill="#FAFF00"/>
<path d="M0.155029 24.0948L16.5448 2.83235C17.4997 1.59364 19.4428 1.88093 19.9984 3.34293L32.6335 36.5931C32.8823 37.2479 32.7704 37.9851 32.3385 38.5366L16.7202 58.48L0.155029 24.0948Z" fill="#4754A3"/>
<path d="M2.11511 27.9134C1.39509 26.8334 1.45134 25.4128 2.2545 24.393L15.0345 8.16709C16.4729 6.34084 19.3521 6.77386 20.1897 8.9424L30.6604 36.0506C31.0428 37.0406 30.8736 38.159 30.2155 38.9917L21.5389 49.9703C20.2753 51.5692 17.8194 51.4699 16.689 49.7743L2.11511 27.9134Z" fill="#FFF9F9"/>
<path d="M0 24.0283L23.4138 36.7142C23.629 36.8307 23.7939 37.0221 23.8774 37.2522L36.3038 71.4833C36.5961 72.2884 35.807 73.0644 35.007 72.7587L14.7123 65.0057L0 24.0283Z" fill="#4754A3"/>
<path d="M52.3162 13.6108C53.2029 11.774 55.3298 10.8985 57.2527 11.5789L68.4153 15.5288C70.6552 16.3214 71.7145 18.8802 70.6902 21.0241L61.8388 39.5504C60.9265 41.4599 58.6847 42.3283 56.724 41.5318L45.7204 37.0616C43.5806 36.1923 42.6196 33.6966 43.6237 31.6167L52.3162 13.6108Z" fill="#4754A3"/>
<path d="M53.7559 14.7852C54.4198 13.4236 55.9947 12.7707 57.4273 13.2631L66.7904 16.4808C68.5001 17.0684 69.3056 19.0235 68.506 20.6449L60.8575 36.1544C60.1681 37.5524 58.5228 38.1895 57.0716 37.6204L47.9659 34.0495C46.3354 33.4101 45.597 31.5158 46.3647 29.9416L53.7559 14.7852Z" fill="#FFF9F9"/>
<path d="M53.0445 53.9312C53.1952 53.6592 53.4072 53.426 53.6638 53.2503L54.8396 52.4447C56.5363 51.2824 58.6717 53.13 57.7652 54.9762L54.1067 62.4273C53.9467 62.7532 53.701 63.0294 53.396 63.2263L51.5317 64.4294C49.7841 65.5572 47.6899 63.5995 48.6976 61.78L53.0445 53.9312Z" fill="#4754A3"/>
<path d="M53.4033 54.6758C53.4758 54.5456 53.5764 54.4333 53.6979 54.347L55.481 53.0798C56.3428 52.4674 57.4416 53.437 56.9412 54.3683L52.9749 61.7501C52.899 61.8912 52.7904 62.0121 52.6581 62.1024L50.6902 63.4471C49.8189 64.0424 48.7391 63.0572 49.2522 62.1351L53.4033 54.6758Z" fill="#FFF9F9"/>
</svg>
