<svg width="64" height="64" viewBox="0 0 64 64" fill="none" xmlns="http://www.w3.org/2000/svg">
<ellipse cx="33.0336" cy="35.5354" rx="28.6535" ry="28.4646" fill="#FAFF00"/>
<path d="M0.119873 18.5113L12.3052 2.80752C13.2611 1.57569 15.1963 1.86278 15.7533 3.31905L25.142 27.8632C25.3937 28.521 25.2807 29.2628 24.8447 29.8159L12.9309 44.9286L0.119873 18.5113Z" fill="#4754A3"/>
<path d="M1.92292 21.8729C1.19573 20.7894 1.25244 19.36 2.06319 18.3374L10.8962 7.19659C12.3359 5.38069 15.2033 5.81337 16.0431 7.97325L23.5645 27.3177C23.9513 28.3123 23.7805 29.4375 23.1161 30.2726L17.2312 37.6697C15.9674 39.2583 13.5237 39.1593 12.3925 37.4737L1.92292 21.8729Z" fill="#FFF9F9"/>
<path d="M0 18.4603L18.0311 28.1653C18.2467 28.2814 18.4123 28.4726 18.4964 28.7026L27.9029 54.444C28.1968 55.2484 27.4095 56.0261 26.6088 55.7222L11.3781 49.9421L0 18.4603Z" fill="#4754A3"/>
<path d="M47.9535 11.7294C48.8419 9.90129 50.9601 9.03008 52.8777 9.70413L59.7855 12.1323C62.034 12.9227 63.0968 15.4918 62.0638 17.6397L56.041 30.1624C55.127 32.0627 52.8947 32.9271 50.9393 32.138L44.125 29.3879C41.9761 28.5207 41.0115 26.0146 42.0243 23.9303L47.9535 11.7294Z" fill="#4754A3"/>
<path d="M49.1567 12.4413C49.8219 11.0863 51.3904 10.4365 52.819 10.9242L58.7538 12.9504C60.47 13.5363 61.278 15.4991 60.4716 17.1234L55.1901 27.7626C54.4995 29.1538 52.8612 29.7878 51.414 29.224L45.6464 26.9771C44.0091 26.3393 43.268 24.4371 44.0424 22.8598L49.1567 12.4413Z" fill="#FFF9F9"/>
<path d="M45.2154 41.6599L51.2843 37.5297L45.6706 48.8877L38.6913 53.3621L45.2154 41.6599Z" fill="#4754A3"/>
<path d="M45.4009 42.3979L49.6154 39.4227L44.8951 48.1498L40.512 51.1249L45.4009 42.3979Z" fill="#FFF9F9"/>
</svg>
